<?xml version="1.0" encoding="utf-8"?>
<!-- Generator: Adobe Illustrator 25.1.0, SVG Export Plug-In . SVG Version: 6.00 Build 0)  -->
<svg version="1.1" id="Laag_1" xmlns="http://www.w3.org/2000/svg" xmlns:xlink="http://www.w3.org/1999/xlink" x="0px" y="0px"
	 viewBox="0 0 490.6 258.3" style="enable-background:new 0 0 490.6 258.3;" xml:space="preserve">
<style type="text/css">
	.st0{fill:#FFFFFF;}
</style>
<g>
	<g>
		<g>
			<path class="st0" d="M16.6,228.6c0.6-0.1,1.2,0.3,1.3,0.9c1.3,10.2,2,15.2,3.3,25.4c0,0.3,0,0.6-0.2,0.8
				c-0.2,0.3-0.4,0.4-0.7,0.4c-1.5,0.2-2.4,0.3-2.9,0.4c-0.4,0.1-0.8-0.2-1.1-0.5c-3.9-6-5.9-9-9.8-15c-0.1-0.2-0.3-0.2-0.5-0.2
				c-0.2,0.1-0.3,0.2-0.3,0.5c0.9,6.2,1.3,9.3,2.2,15.4c0.1,0.6-0.3,1.2-1,1.2c-0.8,0.1-1.2,0.2-2,0.3c-0.6,0.1-1.2-0.3-1.2-0.9
				C2.2,247.2,1.5,242.1,0,232c-0.1-0.6,0.3-1.2,1-1.2c1-0.1,2-0.3,3-0.4c0.4-0.1,0.9,0.1,1.1,0.5c4,6,5.9,9,9.8,15
				c0.1,0.2,0.3,0.2,0.5,0.2c0.2-0.1,0.3-0.2,0.2-0.5c-0.8-6.2-1.2-9.3-2.1-15.5c-0.1-0.6,0.4-1.2,1-1.2
				C15.4,228.7,15.8,228.7,16.6,228.6z"/>
			<path class="st0" d="M33.7,227.5c1.2,10.2,1.9,15.2,3.1,25.4c0.1,0.6-0.4,1.2-1,1.2c-0.8,0.1-1.2,0.2-2.1,0.3
				c-0.6,0.1-1.2-0.4-1.2-1c-0.1-0.7-3.1-25.1-3.2-25.4c-0.1-0.6,0.4-1.2,1-1.2c0.8-0.1,1.3-0.2,2.1-0.3
				C33.1,226.5,33.7,226.9,33.7,227.5z"/>
			<path class="st0" d="M58.3,227.9c-2.9,0.3-4.4,0.5-7.3,0.8c-0.6,0.1-1.1,0.6-1,1.2c0.1,0.9,0.2,1.4,0.3,2.3c0.1,0.6,0.6,1,1.2,1
				c1.9-0.2,2.9-0.3,4.8-0.5c0.7-0.1,1.2,0.4,1.3,1c0.1,0.8,0.1,1.2,0.2,2c0.1,0.6-0.4,1.2-1,1.3c-1.9,0.2-2.9,0.3-4.8,0.5
				c-0.6,0.1-1.1,0.6-1,1.2c0.4,3.3,0.6,4.9,0.9,8.2c0.1,0.6,0.6,1,1.2,1c2.9-0.3,4.3-0.5,7.2-0.8c0.6-0.1,1.2,0.4,1.2,1
				c0.1,0.8,0.1,1.2,0.2,2.1c0.1,0.6-0.4,1.1-1,1.2c-4.6,0.5-6.9,0.8-11.4,1.3c-0.6,0.1-1.2-0.4-1.2-1c-1.2-10.2-1.8-15.3-2.9-25.4
				c-0.1-0.6,0.4-1.2,1-1.2c4.6-0.5,7-0.8,11.6-1.3c0.6-0.1,1.2,0.4,1.2,1c0.1,0.8,0.1,1.2,0.2,2.1C59.4,227.2,59,227.8,58.3,227.9z
				"/>
			<path class="st0" d="M85.8,220.8c0.6-0.1,1.2,0.4,1.2,1c0.7,7.4,1,11.1,1.7,18.5c0.4,4.5-2.9,8.4-7.3,8.8
				c-4.4,0.4-8.4-2.8-8.9-7.2c-0.7-7.4-1.1-11.1-1.9-18.5c-0.1-0.6,0.4-1.1,1-1.2c0.8-0.1,1.2-0.1,2.1-0.2c0.7-0.1,1.2,0.4,1.3,1
				c0.7,7.4,1.1,11.1,1.8,18.4c0.2,2.2,2.1,3.7,4.3,3.5c2.1-0.2,3.5-2,3.3-4c-0.7-7.5-1.1-11.2-1.8-18.7c-0.1-0.6,0.4-1.1,1.1-1.2
				C84.6,220.9,85,220.9,85.8,220.8z"/>
			<path class="st0" d="M122.8,244.7c-0.1,0.5-0.5,1-1.1,1c-1,0.1-1.5,0.1-2.5,0.2c-0.6,0-1.1-0.3-1.2-0.8
				c-1.9-6.5-2.9-9.8-4.8-16.3c-0.9,6.7-1.4,10.1-2.3,16.8c-0.1,0.5-0.5,1-1,1c-1,0.1-1.5,0.1-2.5,0.2c-0.5,0-1-0.3-1.2-0.8
				c-3-10-4.5-15-7.6-25c-0.1-0.3,0-0.7,0.1-1c0.2-0.3,0.5-0.5,0.9-0.5c0.8-0.1,1.2-0.1,2.1-0.2c0.5,0,1,0.3,1.2,0.8
				c1.8,5.9,2.7,8.9,4.5,14.8c0,0.1,0.2,0.2,0.3,0.2c0.2,0,0.3-0.1,0.3-0.3c0.8-6.1,1.2-9.2,2-15.3c0.1-0.5,0.5-1,1.1-1
				c1.1-0.1,1.6-0.1,2.5-0.2c0.5,0,1.1,0.3,1.2,0.8c1,3.5,0.2,0.7,4.4,14.9c0,0.2,0.2,0.2,0.3,0.2c0.2,0,0.3-0.1,0.3-0.2
				c0.9-6.1,1.3-9.2,2.2-15.3c0.1-0.5,0.5-0.9,1.1-1c0.8-0.1,1.2-0.1,2.1-0.1c0.3,0,0.7,0.1,1,0.4c0.2,0.2,0.3,0.6,0.3,0.9
				C125,229.2,124.3,234.4,122.8,244.7z"/>
			<path class="st0" d="M181.5,214.6c0.6,0,1.2,0.5,1.2,1.1c0.4,10.2,0.6,15.3,0.9,25.5c0,0.6-0.5,1.2-1.1,1.2c-0.8,0-1.2,0-2.1,0.1
				c-0.6,0-1.1-0.5-1.1-1.1c-0.2-4.9-0.3-7.3-0.5-12.2c0-0.2-0.2-0.4-0.4-0.4c-0.2,0-0.5,0.1-0.5,0.3c-1.7,5.2-2.5,7.8-4.2,13
				c-0.1,0.5-0.6,0.8-1,0.8c-1.2,0.1-1.8,0.1-3,0.1c-0.5,0-0.9-0.3-1.1-0.7c-2.1-5-3.2-7.5-5.3-12.6c-0.1-0.2-0.3-0.3-0.6-0.3
				c-0.2,0-0.4,0.2-0.4,0.5c0.2,4.9,0.4,7.3,0.6,12.2c0,0.6-0.5,1.2-1.1,1.2c-0.8,0-1.2,0.1-2,0.1c-0.6,0-1.2-0.4-1.2-1.1
				c-0.5-10.2-0.8-15.3-1.3-25.5c0-0.6,0.4-1.2,1.1-1.2c0.7,0,1.5-0.1,2.7-0.1c0.5,0,0.9,0.3,1.1,0.7c3.3,7.7,4.9,11.5,8.1,19.2
				c0.1,0.2,0.3,0.3,0.5,0.3c0.2,0,0.4-0.1,0.4-0.3c2.5-7.9,3.8-11.9,6.4-19.9c0.2-0.5,0.6-0.8,1.1-0.8
				C179.9,214.7,180.8,214.6,181.5,214.6z"/>
			<path class="st0" d="M197.3,237.5c-1.6-2.4-2.6-5.6-2.7-9.4c-0.1-3.8,0.6-7.1,2.1-9.6c1.8-3,4.7-4.6,8.2-4.7
				c3.5-0.1,6.4,1.4,8.4,4.3c1.6,2.4,2.5,5.6,2.6,9.4c0.1,3.8-0.7,7.1-2.2,9.5c-1.8,2.9-4.6,4.5-8.1,4.6
				C202.1,241.8,199.3,240.3,197.3,237.5z M199,228c0.1,2.2,0.7,9.6,6.6,9.4c5.8-0.1,6.1-7.5,6.1-9.7c0-2.3-0.7-9.6-6.6-9.5
				C199.2,218.3,198.9,225.7,199,228z"/>
			<path class="st0" d="M235.9,226.7c-0.3,0.4-0.3,0.9,0,1.3c3.4,4.6,5.1,6.8,8.5,11.4c0.3,0.3,0.3,0.8,0.1,1.2
				c-0.2,0.4-0.6,0.6-1,0.6c-1,0-1.5,0-2.5,0c-0.3,0-0.7-0.1-0.9-0.5c-2.8-3.8-4.2-5.7-7.1-9.4c-0.1-0.1-0.2-0.2-0.3-0.1
				c-0.1,0-0.2,0.1-0.2,0.2c-0.3,0.3-0.4,0.5-0.6,0.8c0,0,0,0.1,0,0.2c0,3.1,0,4.7,0.1,7.8c0,0.6-0.5,1.1-1.1,1.1c-0.8,0-1.2,0-2,0
				c-0.6,0-1.1-0.5-1.2-1.1c-0.1-10.2-0.2-15.3-0.3-25.5c0-0.6,0.5-1.1,1.1-1.2c0.8,0,1.2,0,2,0c0.7,0,1.2,0.5,1.2,1.1
				c0,3.8,0,5.7,0.1,9.4c0,0.2,0.1,0.3,0.2,0.3c0.1,0,0.3,0,0.3-0.1c3-4.2,4.6-6.2,7.6-10.4c0.2-0.3,0.6-0.5,0.9-0.5
				c1,0,1.6,0,2.6,0c0.4,0,0.8,0.2,1,0.6c0.2,0.4,0.2,0.8-0.1,1.2C240.9,219.8,239.2,222.1,235.9,226.7z"/>
			<path class="st0" d="M271.6,213.6c0.6,0,1.1,0.5,1.1,1.1c-0.1,7.4-0.2,11.2-0.3,18.6c-0.1,4.5-3.7,8-8.2,8
				c-4.4,0-8.1-3.7-8.1-8.1c0-7.5,0.1-11.2,0.1-18.6c0-0.6,0.5-1.1,1.1-1.1c0.8,0,1.3,0,2.1,0c0.7,0,1.2,0.5,1.2,1.1
				c-0.1,7.4-0.1,11.1-0.2,18.5c0,2.2,1.7,3.9,3.9,3.9c2.1,0,3.7-1.6,3.7-3.6c0.1-7.5,0.1-11.2,0.2-18.7c0-0.6,0.6-1.1,1.2-1.1
				C270.3,213.6,270.7,213.6,271.6,213.6z"/>
			<path class="st0" d="M308.4,214.5c0.6,0,1.1,0.5,1.1,1.2c-0.4,10.2-0.6,15.3-0.9,25.5c0,0.6-0.6,1.1-1.2,1.1
				c-0.8,0-1.2,0-2.1-0.1c-0.6,0-1.1-0.5-1.1-1.2c0.2-4.9,0.2-7.3,0.4-12.2c0-0.2-0.2-0.4-0.4-0.5c-0.2,0-0.5,0.1-0.5,0.3
				c-2.1,5-3.1,7.6-5.1,12.6c-0.2,0.5-0.6,0.7-1.1,0.7c-1.2,0-1.8-0.1-3-0.1c-0.5,0-0.9-0.3-1-0.8c-1.7-5.2-2.6-7.7-4.4-12.9
				c-0.1-0.2-0.3-0.3-0.5-0.3c-0.2,0-0.4,0.2-0.4,0.4c-0.1,4.9-0.2,7.3-0.3,12.2c0,0.6-0.6,1.1-1.2,1.1c-0.8,0-1.2,0-2,0
				c-0.6,0-1.1-0.5-1.1-1.2c0.2-10.2,0.3-15.3,0.6-25.5c0-0.6,0.5-1.1,1.2-1.1c0.7,0,1.5,0,2.7,0.1c0.5,0,0.9,0.3,1.1,0.8
				c2.7,7.9,4.1,11.9,6.7,19.8c0.1,0.2,0.3,0.3,0.4,0.3c0.2,0,0.4-0.1,0.4-0.3c3.1-7.7,4.7-11.6,7.8-19.3c0.2-0.4,0.6-0.7,1.1-0.7
				C306.9,214.5,307.7,214.5,308.4,214.5z"/>
			<path class="st0" d="M334.5,222.5c0,0.5-0.4,0.9-0.9,0.8c-1-0.1-1.5-0.1-2.6-0.1c-0.5,0-0.9-0.4-0.8-0.9c0-0.1,0-0.2,0-0.3
				c0.1-1.9-0.7-2.7-2.1-2.8c-1.5-0.1-2.3,0.7-2.4,2.6c-0.1,2,0.8,3.5,3.6,6.1c3.7,3.3,4.7,5.6,4.6,8.7c-0.2,4.4-2.7,6.7-7.1,6.5
				c-4.4-0.2-6.7-2.8-6.5-7.1c0-0.3,0-0.5,0-0.8c0-0.5,0.4-0.8,0.9-0.8c1,0,1.6,0.1,2.6,0.1c0.5,0,0.9,0.4,0.8,0.9
				c0,0.4,0,0.7,0,1.1c-0.1,1.9,0.8,2.7,2.2,2.8c1.4,0.1,2.4-0.6,2.5-2.5c0.1-2-0.7-3.5-3.6-6.1c-3.6-3.3-4.8-5.6-4.6-8.7
				c0.2-4.3,2.6-6.7,7.1-6.5C332.5,215.6,334.7,218.2,334.5,222.5z"/>
			<path class="st0" d="M373.4,245.9c-6.8-0.5-4.7-0.3-8.4-0.6c-0.6,0-1.1-0.6-1-1.2c0.7-10.2,1.1-15.3,1.8-25.5
				c0-0.6,0.6-1.1,1.2-1c2.5,0.2,3.8,0.3,6.4,0.5c7.2,0.5,9,8,6.1,12.6c-0.3,0.4-0.2,1,0.2,1.3C384.3,236.5,381.8,246.6,373.4,245.9
				z M370.9,222.2c-0.6,0-1.2,0.4-1.2,1c-0.1,2.1-0.2,3.2-0.4,5.3c0,0.6,0.4,1.1,1,1.2c0.8,0.1,1.2,0.1,2.1,0.1
				c4.8,0.3,5.5-7.1,0.5-7.5C372.2,222.3,371.7,222.2,370.9,222.2z M374.3,234.2c-1.7-0.1-2.5-0.2-4.2-0.3c-0.6,0-1.1,0.4-1.2,1
				c-0.1,2.1-0.2,3.2-0.4,5.3c0,0.6,0.4,1.1,1,1.2c1.7,0.1,2.5,0.2,4.2,0.3C378.5,242,379.2,234.6,374.3,234.2z"/>
			<path class="st0" d="M407.4,225.2c-2.9-0.3-4.4-0.4-7.3-0.7c-0.6-0.1-1.2,0.4-1.2,1c-0.1,0.9-0.1,1.4-0.2,2.3
				c-0.1,0.6,0.4,1.1,1,1.2c1.9,0.2,2.9,0.3,4.8,0.4c0.7,0.1,1.1,0.6,1,1.2c-0.1,0.8-0.1,1.2-0.2,2c-0.1,0.6-0.6,1.1-1.3,1
				c-1.9-0.2-2.9-0.3-4.8-0.4c-0.6-0.1-1.2,0.4-1.2,1c-0.3,3.3-0.4,4.9-0.7,8.2c-0.1,0.6,0.4,1.1,1,1.2c2.9,0.3,4.3,0.4,7.2,0.7
				c0.6,0.1,1.1,0.6,1,1.2c-0.1,0.8-0.1,1.2-0.2,2.1c-0.1,0.6-0.6,1-1.2,1c-4.6-0.4-6.9-0.6-11.4-1c-0.6-0.1-1.1-0.6-1-1.2
				c0.9-10.2,1.3-15.3,2.2-25.5c0.1-0.6,0.6-1.1,1.2-1c4.7,0.4,7,0.6,11.6,1c0.6,0.1,1.1,0.6,1,1.2c-0.1,0.8-0.1,1.2-0.2,2.1
				C408.5,224.8,408,225.2,407.4,225.2z"/>
			<path class="st0" d="M429.7,246.7c0.6,0.1,1,0.6,1,1.2c-0.1,0.8-0.1,1.2-0.2,2.1c-0.1,0.6-0.6,1-1.2,1c-4.2-0.4-6.3-0.7-10.5-1.1
				c-0.6-0.1-1.1-0.6-1-1.2c1-10.2,1.5-15.3,2.6-25.5c0.1-0.6,0.6-1,1.2-1c0.8,0.1,1.3,0.1,2.1,0.2c0.6,0.1,1.1,0.6,1,1.2
				c-0.9,8.5-1.3,12.7-2.2,21.2c-0.1,0.6,0.4,1.1,1,1.2C426,246.3,427.2,246.5,429.7,246.7z"/>
			<path class="st0" d="M457.1,230.5c-2.9-0.4-4.3-0.5-7.2-0.9c-0.6-0.1-1.2,0.4-1.2,1c-0.1,0.9-0.2,1.4-0.3,2.3
				c-0.1,0.6,0.4,1.2,1,1.2c1.9,0.2,2.9,0.3,4.8,0.6c0.7,0.1,1.1,0.6,1,1.2c-0.1,0.8-0.1,1.2-0.2,2c-0.1,0.6-0.6,1.1-1.3,1
				c-1.9-0.2-2.9-0.3-4.8-0.6c-0.6-0.1-1.2,0.4-1.2,1c-0.4,3.3-0.6,4.9-1,8.2c-0.1,0.6,0.4,1.1,1,1.2c2.9,0.3,4.3,0.5,7.2,0.9
				c0.6,0.1,1,0.6,1,1.2c-0.1,0.8-0.2,1.2-0.3,2.1c-0.1,0.6-0.6,1-1.2,1c-4.6-0.6-6.9-0.8-11.4-1.4c-0.6-0.1-1-0.6-1-1.2
				c1.2-10.2,1.7-15.3,2.9-25.4c0.1-0.6,0.6-1,1.2-1c4.6,0.5,7,0.8,11.6,1.4c0.6,0.1,1.1,0.6,1,1.2c-0.1,0.8-0.2,1.2-0.3,2.1
				C458.2,230.2,457.7,230.6,457.1,230.5z"/>
			<path class="st0" d="M490.6,244.6c-0.5,3.4-1.7,6.8-4.1,9.1c-2.5,2.5-5.8,3.5-9.6,3c-3.8-0.5-6.7-2.4-8.4-5.4
				c-1.5-2.7-2-6.1-1.5-9.9c0.5-3.8,1.9-7,4-9.2c2.5-2.5,5.9-3.6,9.7-3.1c3.8,0.5,6.8,2.4,8.5,5.5c0.2,0.3,0,0.7-0.3,0.8
				c-1.2,0.5-1.8,0.7-3,1.2c-0.2,0.1-0.5,0-0.7-0.2c-1.5-2.2-3.8-2.9-5.1-3c-2.3-0.3-7.7-0.1-8.8,8.5c-1.1,8.6,4,10.2,6.3,10.5
				c1.8,0.2,5.5,0.2,7.6-4.2c0.2-0.4,0-0.8-0.4-0.8c-2.1-0.3-2.5-0.3-4.6-0.6c-0.6-0.1-1-0.6-0.9-1.3c0.1-0.8,0.2-1.2,0.3-2
				c0.1-0.6,0.6-1,1.3-0.9c1.1,0.2,8.5,1.2,9.5,1.3C490.4,244,490.6,244.3,490.6,244.6z"/>
		</g>
	</g>
	<g>
		<g>
			<path class="st0" d="M28.2,91.2h4l4.2,19.6h-2.7l-0.9-4.2h-5l-0.9,4.2h-2.7L28.2,91.2z M28.2,104.1h3.9l-2-9.3L28.2,104.1z"/>
			<path class="st0" d="M54.2,110.9h-2.7V97.4l-2.6,7.4l-2.6-7.4v13.5h-2.7V91.2h2.7l2.6,7.2l2.6-7.2h2.7V110.9z"/>
			<path class="st0" d="M70.1,95.8c0-1.3-1-2.5-2.5-2.5c-1.5,0-2.5,1.1-2.5,2.5v0.7c0,0.7,0.3,1.3,0.7,1.8c0.1,0.1,0.4,0.3,0.4,0.3
				l4,2.3c0.5,0.3,0.8,0.4,1.2,0.9c0.8,0.8,1.4,2.1,1.4,3.4v1.1c0,2.9-2.4,4.9-5.3,4.9c-2.9,0-5.3-2-5.3-4.9v-0.6h2.8v0.6
				c0,1.3,1,2.5,2.5,2.5c1.5,0,2.5-1.1,2.5-2.5v-1.1c0-0.7-0.3-1.3-0.7-1.8c-0.1-0.1-0.4-0.3-0.4-0.3l-4-2.3
				c-0.5-0.3-0.8-0.4-1.2-0.9c-0.8-0.8-1.4-2.1-1.4-3.4v-0.7c0-2.9,2.4-4.9,5.3-4.9c2.9,0,5.3,2,5.3,4.9v0.6h-2.8V95.8z"/>
			<path class="st0" d="M86.3,107.7c1,0,1.8,0.8,1.8,1.8c0,1-0.8,1.8-1.8,1.8s-1.8-0.8-1.8-1.8C84.6,108.5,85.3,107.7,86.3,107.7z"
				/>
		</g>
	</g>
	<g>
		<g>
			<path class="st0" d="M404.9,108.3v2.6h-10.5v-1.8c0-3.9,1.3-5.5,5.3-9c1.4-1.2,2.5-2.2,2.5-3.5v-0.8c0-1.3-1.1-2.5-2.5-2.5
				c-1.3,0-2.5,1.1-2.5,2.5v1.1h-2.8v-1.1c0-2.9,2.4-4.9,5.3-4.9c2.9,0,5.3,2,5.3,4.9v0.8c0,3-2.7,4.7-5.2,7.2
				c-1.9,1.9-2.5,2.9-2.5,4.4H404.9z"/>
			<path class="st0" d="M423.6,95.8v10.5c0,2.9-2.3,4.9-5.3,4.9c-2.9,0-5.3-2-5.3-4.9V95.8c0-2.9,2.4-4.9,5.3-4.9
				C421.3,90.9,423.6,92.9,423.6,95.8z M415.9,104.7l4.5-10.3c-0.4-0.6-1.1-1.1-2-1.1c-1.5,0-2.5,1.1-2.5,2.5V104.7z M420.8,97.5
				l-4.4,10.3c0.4,0.6,1.1,1,2,1c1.5,0,2.5-1.1,2.5-2.5V97.5z"/>
			<path class="st0" d="M442.4,108.3v2.6h-10.5v-1.8c0-3.9,1.3-5.5,5.3-9c1.4-1.2,2.5-2.2,2.5-3.5v-0.8c0-1.3-1.1-2.5-2.5-2.5
				c-1.3,0-2.5,1.1-2.5,2.5v1.1h-2.8v-1.1c0-2.9,2.4-4.9,5.3-4.9c2.9,0,5.3,2,5.3,4.9v0.8c0,3-2.7,4.7-5.2,7.2
				c-1.9,1.9-2.5,2.9-2.5,4.4H442.4z"/>
			<path class="st0" d="M461.1,110.9h-10.5v-2.6h3.9V93.9h-3.3v-2.6c0,0,4.3,0,6.1,0v17h3.9V110.9z"/>
		</g>
	</g>
	<polygon class="st0" points="215.3,97.4 218.7,94 205.6,82.3 205.6,82.3 202.9,85 	"/>
	<path class="st0" d="M212.4,102.8c0.5,0,1.1-0.4,1.7-1c0.6-0.6,0.9-1.2,0.9-1.7c0-0.6-0.4-1.2-1.1-1.9C211.6,96,201.6,86,201.6,86
		c-0.4-0.5-1.7-1.6-2.8-1.6c0,0,0,0,0,0c-0.4,0-0.8,0.2-1.1,0.5c-1.9,1.9-1.3,2.7-0.4,3.6l13.5,13.5
		C211.4,102.6,211.9,102.9,212.4,102.8z"/>
	<g>
		<path class="st0" d="M235.2,64.4l-7.6-7.6l-19.1,19.1c0.5,0.4,1.2,0.9,2.1,1.4c2,1.2,4.4,3.2,6.6,5.2L235.2,64.4z"/>
		<path class="st0" d="M218.3,83.6c2.9,2.8,5.3,5.3,5.5,5.4c0.7,0.7,1.4,1.5,2,2.2l18.1-18.1l-7.6-7.6L218.3,83.6z"/>
	</g>
	<path class="st0" d="M209.7,103.2l-13.5-13.5c-0.3-0.3-0.5-0.6-0.8-0.9L148,135.1c-0.2,0.2-5,4.1-4.9,7.7c0.1,3.6,3.2,6.9,3.3,7
		c0,0,3.2,3.3,5.8,5.8c3,2.7,6.3,3.2,7.6,3.3c0.3,0,0.6,0,1,0c1.5,0,3.8-0.4,6.9-2.7c3.9-2.9,4.8-7.1,5.4-10.2l0.1-0.3
		c0.5-2.6,3.3-3.3,3.5-3.4c0.2-0.1,5.7-2.8,8.3-6.8c2.4-3.7,4.8-5.5,4.8-5.5c0.3-0.2,6.8-4.7,9.1-10c2.1-4.7,4.1-6.1,4.3-6.3
		c5-4.9,6.8-8.1,7.4-9.8C210.4,103.8,210,103.6,209.7,103.2z M173.8,134h-5.4v5.4h-1.6V134h-5.4v-1.6h5.4v-5.4h1.6v5.4h5.4V134z
		 M182.9,124.9h-5.4v5.4h-1.6v-5.4h-5.4v-1.6h5.4v-5.4h1.6v5.4h5.4V124.9z M192,115.8h-5.4v5.4h-1.6v-5.4h-5.4v-1.6h5.4v-5.4h1.6
		v5.4h5.4V115.8z"/>
	<path class="st0" d="M293.2,74c0.4-3.5-3.6-5.8-4.4-6.2c-0.2-0.1-0.5-0.2-0.7-0.2c-0.4,0-0.7,0.1-0.9,0.2c-0.8,0.4-1.5,1.1-1.7,2
		c-0.4,1.4,1.7,2.9,1.7,2.9l0.2,0.1l0.1,0.2c0.3,0.7,0.5,2.5-4.7,5.7c-5,3.1-12.8,11.3-12.9,11.4c-5.1,4.9-6.5,11.2-3.3,14.7
		c1.2,1.3,2.4,1.9,3.6,2c1.2,0,2.1-0.6,2.5-1c0.3-0.3,1.4-1.6,0.5-3.7c-0.2-0.4-0.4-0.7-0.8-0.8c-0.5-0.2-1.2,0.1-1.4,0.2l-1.9,1
		l2.8-7.3c2.1-5.5,12.9-12.7,13.4-13C287.3,80.9,292.9,76.7,293.2,74z"/>
	<polygon class="st0" points="273.7,94 277.1,97.4 289.5,85 286.8,82.3 286.8,82.3 	"/>
	<path class="st0" d="M290.8,86c0,0-10,10-12.3,12.3c-0.7,0.7-1.1,1.3-1.1,1.9c0,0.5,0.3,1.1,0.9,1.7c0.6,0.6,1.2,0.9,1.7,1
		c0.5,0,1-0.2,1.5-0.7l13.5-13.5c0.6-0.6,0.8-1,0.9-1.5c0-0.6-0.4-1.3-1.2-2.2c-0.3-0.3-0.7-0.5-1.1-0.5c0,0,0,0,0,0
		C292.4,84.4,291.2,85.6,290.8,86z"/>
	<path class="st0" d="M230.4,21.2c-0.7-0.6-17.2-15.6-27.2-18.8c-0.8-0.3-8-3-10.7-2.2L192,0.3l-0.1,0.5c-0.7,2.8,1.9,9.9,2.2,10.7
		c3.2,10.1,18.2,26.6,18.9,27.3l53.2,53.2c0.7-1,1.6-2,2.5-2.9c0.2-0.2,2.5-2.7,5.5-5.4l-74-74l1.1-1.1l74.1,74.1
		c2.2-2,4.6-3.9,6.6-5.2c1.3-0.8,2.1-1.4,2.7-1.9L230.4,21.2z"/>
	<path class="st0" d="M344.5,135.2L297,88.8c-0.2,0.3-0.5,0.6-0.8,0.9l-13.5,13.5c-0.3,0.3-0.7,0.6-1,0.8c0.6,1.7,2.5,4.9,7.6,9.9
		c0,0,2,1.4,4.1,6.2c2.3,5.2,8.9,9.8,9.1,9.9c0,0,2.4,1.8,4.8,5.5c2.6,4,8.1,6.7,8.5,6.9c0.1,0,2.8,0.8,3.4,3.3l0.1,0.3
		c0.7,3.1,1.5,7.3,5.4,10.2c3.2,2.4,5.4,2.7,7,2.7c0.4,0,0.7,0,1,0c1.3-0.1,4.6-0.6,7.6-3.3c2.6-2.4,5.8-5.8,5.8-5.8
		c0.1-0.1,3.2-3.5,3.3-7C349.5,139.2,344.6,135.3,344.5,135.2z M307.5,115.8v5.4h-1.6v-5.4h-5.4v-1.6h5.4v-5.4h1.6v5.4h5.4v1.6
		H307.5z M316.6,124.9v5.4h-1.6v-5.4h-5.4v-1.6h5.4v-5.4h1.6v5.4h5.4v1.6H316.6z M331,134h-5.4v5.4H324V134h-5.4v-1.6h5.4v-5.4h1.6
		v5.4h5.4V134z"/>
	<path class="st0" d="M222.3,106.8c1.2,0,2.4-0.7,3.6-2c3.3-3.5,1.9-9.8-3.2-14.7c-0.1-0.1-7.9-8.4-12.9-11.5
		c-5.2-3.2-5-5.1-4.7-5.7l0.1-0.2l0.2-0.1c0,0,2-1.5,1.7-2.9c-0.2-0.8-0.9-1.6-1.7-2c-0.4-0.2-1-0.4-1.6,0c-0.8,0.4-4.7,2.7-4.4,6.2
		c0.3,2.7,5.8,6.8,7.9,8.2c0.5,0.3,11.3,7.5,13.4,13l2.8,7.4l-1.9-1.1c-0.2-0.1-0.6-0.2-1-0.2c-0.1,0-0.3,0-0.4,0.1
		c-0.3,0.1-0.6,0.4-0.8,0.8c-0.9,2.1,0.1,3.4,0.5,3.7C220.1,106.2,221,106.8,222.3,106.8z"/>
	<path class="st0" d="M299.8,0.9c-2.6-0.7-10.2,2.2-10.2,2.2c-10,3.2-27,18.7-27,18.7l-14.1,14.1l7.6,7.6l35.1-35.1l1.1,1.1
		l-35.1,35.1l7.6,7.6l14.1-14.1c0,0,15.5-17,18.7-27C297.6,11.2,300.5,3.5,299.8,0.9z"/>
</g>
</svg>
